<?xml version="1.0" encoding="UTF-8"?><svg id="Ebene_2" xmlns="http://www.w3.org/2000/svg" viewBox="0 0 39.19 40.17"><defs><style>.cls-1{fill:#c0ba97;}.cls-2{fill:#e1c260;}.cls-3{fill:#666146;}</style></defs><g id="Blob"><path class="cls-2" d="M37.49,19.73c-.27,15.29-18.76,22.77-29.65,12.13C-3.09,20.98,4.49,2.23,19.98,2.07c9.58-.28,17.81,8.13,17.51,17.66h0ZM34.9,19.73C34.67,6.73,18.79.08,9.42,9.17c-7.75,7.35-5.2,20.66,4.69,24.71,9.85,4.23,21.09-3.51,20.78-14.15h0Z"/></g><g id="Trendline"><polygon class="cls-3" points="11.57 31.74 12.6 34.51 15.37 35.54 12.6 36.56 11.57 39.33 10.55 36.56 7.78 35.54 10.55 34.51 11.57 31.74"/><polygon class="cls-3" points="34.75 37.28 35.14 38.34 36.2 38.73 35.14 39.12 34.75 40.17 34.36 39.12 33.31 38.73 34.36 38.34 34.75 37.28"/><polygon class="cls-1" points="36.1 33.54 37.17 35.28 39.19 35.6 37.44 36.67 37.12 38.69 36.05 36.95 34.03 36.63 35.77 35.56 36.1 33.54"/><polygon class="cls-3" points="1.44 3.7 1.83 4.76 2.89 5.15 1.83 5.54 1.44 6.59 1.05 5.54 0 5.15 1.05 4.76 1.44 3.7"/><polygon class="cls-1" points="3.76 3.13 4.03 3.86 4.76 4.13 4.03 4.4 3.76 5.13 3.49 4.4 2.76 4.13 3.49 3.86 3.76 3.13"/><polygon class="cls-1" points="31.61 2.88 31.29 1.8 30.26 1.35 31.34 1.03 31.8 0 32.12 1.08 33.14 1.53 32.07 1.85 31.61 2.88"/><polygon class="cls-3" points="31.48 6.49 31.71 4.54 30.37 3.1 32.33 3.33 33.77 1.99 33.54 3.94 34.88 5.39 32.93 5.16 31.48 6.49"/></g><g id="Tshirt"><path class="cls-3" d="M.93,32.14c3.79-5.21,7.9-10.13,12.11-14.99.63-.74,1.9-.47,2.19.45.73,1.92,1.51,3.82,2.2,5.75l-2.45-.47c1.82-2.09,3.61-4.21,5.48-6.25,1.85-2.07,3.7-4.12,5.61-6.14.49-.57,1.37-.63,1.92-.11,1.01,1.77,1.29,3.94,1.98,5.87,0,0-1.94-.35-1.94-.35,3.25-3.6,6.71-7.3,10.22-10.65-1.9,3.01-4.19,6.22-6.28,9.12-.71,1-1.46,1.98-2.19,2.96-.48.69-1.61.53-1.9-.24-.71-1.76-1.4-3.52-2.06-5.29,0,0,2.26.45,2.26.45-1.76,2.14-3.57,4.24-5.4,6.33-1.8,2.11-3.68,4.14-5.52,6.21-.53.6-1.45.66-2.05.13-1.07-1.61-1.57-4.53-2.33-6.44,0,0,2.19.45,2.19.45-4.53,4.57-9.12,9.04-14.03,13.22h0Z"/><path class="cls-3" d="M36.7,11.41c.01-1.97.31-3.89.67-5.79l.67.56c-1.95.75-3.92,1.43-6,1.79.89-.58,1.82-1.05,2.76-1.5.94-.45,1.91-.85,2.88-1.22.25-.1.54.03.64.28-.2,1.99-.9,3.96-1.62,5.87h0Z"/></g></svg>