<?xml version="1.0" encoding="UTF-8"?><svg id="Ebene_2" xmlns="http://www.w3.org/2000/svg" viewBox="0 0 43.59 48.71"><defs><style>.cls-1,.cls-2{fill:#fff;}.cls-3,.cls-4,.cls-5{fill:none;}.cls-3,.cls-5{stroke-miterlimit:10;}.cls-3,.cls-5,.cls-2{stroke:#666146;stroke-width:.2px;}.cls-4{stroke:#e1c260;stroke-width:2px;}.cls-4,.cls-2{stroke-linejoin:round;}.cls-5,.cls-2{stroke-linecap:round;}.cls-6{fill:#c0ba97;}.cls-7{fill:#666146;}</style></defs><g id="Vector_DE"><path class="cls-4" d="M9.92,45.69l.44.35.63-.35s.28.39.72.26.9-.42.9-.42c0,0,.64.25.61.39,0,0,.57-.04.51-.34,0,0-1.07-.74.25-1.07,0,0,1.57.99,1.9.77,0,0,1.77.63,1.94.94s1.09-.22,1.09-.22c0,0,1.05,0,1.65,1.32,0,0,.1.66.5.29s.66-1.7.66-1.7l.25.22s.57-.2.64-.17.94.11,1.28.82c0,0,.98.37,2.18-.54s2.8-.83,2.8-.83l.29-.56s1.03.17,1.01.44c0,0,.56-.64.93-.29,0,0,.64,1.52,1.13,1.28,0,0,1.1-1.24-.29-1.74,0,0,.96-.57-.91-2.02,0,0,1.13-1.55,2.01-1.4,0,0,.91-.25.76-1.5,0,0,.42-.54,1.08,0,0,0,.96-1.42.17-2.01s-1.1-.59-1.1-.59c0,0-.54-.02-.81-.78s-.66-.22-.66-.22c0,0-.39-.22-.59-1.13,0,0-.71-.25-.91,0,0,0-1.69-1.64-1.59-2.53s.37-1.01.37-1.01c0,0-.37-.68-1.26-1.11,0,0-.07-.89-.36-.94,0,0-.3-1,.43,0,0,0,.43.29.72-.44,0,0,.3-.64,1.63-.87,0,0,.4.75.69-.32,0,0,.85.01.82-.42,0,0,.04-.51.55-.5,0,0,.55.22.55-.36,0,0,.35-.57,1.3-.32,0,0,.08-.54.4-.57,0,0,1.5-.36,1.43-.71,0,0-.96-.98.06-.74,0,0,.55-.17,1.14,1.07,0,0,.3.48.57-.28s.59-1.24.52-1.5.26-.61-.24-1.44c0,0,.26-.44-.83-.94,0,0-.31-.1-.17-.46,0,0,.23-.74-.36-1.03,0,0-.38-.33.09-.85,0,0,.18-1.66-.39-2.28,0,0-.56-.33-.26-.91,0,0,.59-.78-1.03-1.75s-.58-1.45-.58-1.45c0,0,.68-.42.54-1.12,0,0,.32-.89-.1-1.55,0,0-.47-.48-.42-.88,0,0,.18-.42-.04-.69,0,0-.63-.54-.37-1.4s-1.48-1.28-1.48-1.28c0,0-.06-.4.3-.61,0,0-.37.18-.55,0s-.08-.56-.08-.56c0,0,0-.25-.54-.39s.19-.77.19-.77c0,0,.3-.35-.22-.3s-.54.39-.7.15-.23-.61-.02-.72c0,0-.67-.47-.66.31s-1.79,1.27-1.79,1.27c0,0-.44-.06-.61-.32s-.25,1.46-.8,1.63-.89.83-2.15.6c0,0-.03.22-.63.57s-.41,1.12-1,.73.21-.65-.53-.55c0,0-.41.56-.66.37,0,0-1.08-.2-.16-.73,0,0,1.08-.71.81-1.43,0,0-.06-.67.78-.45,0,0-.23-.93-.91-.78,0,0-.49.06-.22.44,0,0-.12.84-.69.83s-1.69-.69-1.69-.69c0,0-.69-.43-1.58-.12,0,0,1.14-1.3.15-2.02,0,0-.53.11-1.16-.33,0,0-.62-.11-.96.29,0,0-.71-.66-1.75-.68s-1.96.12-1.96.12c0,0-.9,2.13.7,3.3,0,0,.52,1.37-.61,2,0,0-.54,1.25-.83,1.25,0,0-2.01-.12-2.4.2,0,0-2.89.22-2.72.88s-.42.6.58,1.21,1.44.57,1.23,1.38-.29,2.63-.83,3.35c0,0-1.44-.7-1.32.74,0,0,.15.2.92.33,0,0,.88.2.2,1.27s-1.21,1.05-1.21,1.05c0,0,.92.64,0,1.05,0,0-.9.52-1.99.07,0,0-1.34-.42-.59,1.12,0,0,1.12,1.58,0,2.72,0,0,.09.53-.59,1.23,0,0,.64.92.37,1.71s.68.85.68.85c0,0-.37.28-.28.53s.5-.02.61.57-.92,1.78-.92,1.78c0,0-.37,1.86,1.36,2.24,0,0-1.23,1.51-.72,1.97,0,0,1.03.15,1.58,1.93,0,0,.59-.92,1.31.35s1.4-.4,1.4-.4c0,0,.31,1.25,1.99.94,0,0,1.09-.11,1.14.53s-1.84,2.26-1.84,2.26c0,0,.13,1.16-.39,1.67s-.63,1.91-.31,2.24c0,0-.81,1.14-.57,1.56l.42.67Z"/></g><g id="Helmet"><path class="cls-1" d="M36.42,29.68c-.06-1.97-.32-4.97-1.33-8.46-1.16-4-2.1-7.21-5.13-9.79-3.85-3.28-8.41-3.28-9.19-3.26-.77.01-5.44.16-9.19,3.66-2.49,2.32-3.29,4.93-4.59,9.19-1.09,3.55-1.5,6.6-1.66,8.66.2.12.69.37,1.27.27.46-.09.78-.36,1-.6,1.02-1.08,1.19-2.33,1.73-3.33.6-1.11,1.53-1.64,2.73-2.33,1.26-.72,2.59-1.05,10.12-.8,2.78.09,6.33.26,6.33.26h0c2.42.93,3.69,2.2,4.39,3.2,1.01,1.45,1.63,3.43,2.87,3.48.28.01.51-.08.66-.15Z"/><path class="cls-7" d="M36.33,29.63c-.57-4.72-1.9-9.65-3.9-13.94-2.08-4.28-6.76-6.84-11.44-6.89-4.65.04-9.52,2.48-11.59,6.82-1.98,4.45-3.39,9.22-3.97,14.07,0,0-.05-.09-.05-.09,2.55.92,2.61-2.53,3.59-4.21,1.47-2.14,3.77-3.21,6.21-3.38,4.55-.28,8.96-.27,13.36,1.05,1.69.65,3.31,1.67,4.39,3.17.97,1.09,1.56,4,3.41,3.41h0ZM36.51,29.73c-2.03.98-2.76-2.26-3.75-3.39-1.05-1.46-2.63-2.46-4.3-3.1-4.19,1.03-8.85.34-13.16.53-2.03,0-4.06.9-5.28,2.3-.9,1.45-2.23,5.46-4.76,3.69-.03-2.47.48-5.01,1.02-7.44,1.18-4.78,2.68-10.18,7.36-12.72,5.55-3.39,13.29-2.44,17.78,2.3,2.67,2.82,3.57,6.76,4.46,10.36.52,2.47.76,4.89.62,7.48h0Z"/><line class="cls-5" x1="27.16" y1="20.49" x2="14.64" y2="20.49"/><path class="cls-7" d="M9.94,25.29c.79,1.92,1.4,4.51,2.19,6.42.12.24.23.24.49.26.28-.02.6-.04,1.08.19,0,0-.06.12-.06.12l-2.06-8.35.16.06-1.79,1.31h0ZM9.75,25.22l1.86-1.4c.06-.04.14-.01.16.06,0,0,2.06,8.35,2.06,8.35.02.05-.01.1-.06.12-.37.8-1.27.79-1.97.46-.96-.65-.95-2.01-1.28-2.95-.35-1.57-.63-3.02-.77-4.64h0Z"/><path class="cls-2" d="M32.01,25.42s-1.38,6.06-1.91,6.84-1.98.16-1.98.16l2.06-8.35,1.83,1.36Z"/><path class="cls-7" d="M34.65,29.27s-3.61.24-3.61.24l.09-.07c-.06,2.33-.99,7.86-3.93,7.98,0,0-.08,0-.08,0,0,0-.98-.54-.98-.53,0,0,.09,0,.09,0-.76.55-1.61.98-2.52,1.28-2.69.85-5.97.8-8.32-.92,0,0,.42-.04.42-.04-.32.14-.64.27-1,.35-2.01-2.08-3.3-5.31-4.05-8.15,0,0,.1.08.1.08,0,0-3.43.13-3.43.13-.06,0-.1-.04-.1-.1,0-.06.04-.1.1-.1l3.43-.13s.09.03.1.08c.71,2.92,2.04,5.68,3.88,8.06,0,0-.14-.02-.14-.02.19-.31.41-.58.64-.85.11-.13.28-.07.42-.04,0,0,2.56.63,2.56.63,2.64.65,5.29.32,7.92-.45,0,0,.98.53.98.53,0,0-.09,0-.09,0,1.28-2.71,2.35-5.34,3.9-7.92,0,0,3.61-.24,3.61-.24.12,0,.15.19.01.2h0Z"/><path class="cls-3" d="M15.58,36.87c1.27-.39,3.11-.82,5.36-.83,2.19-.01,3.99.37,5.25.74"/><polygon class="cls-6" points="39.16 34.6 39.55 35.66 40.6 36.05 39.55 36.44 39.16 37.49 38.77 36.44 37.71 36.05 38.77 35.66 39.16 34.6"/><polygon class="cls-7" points="40.5 30.85 41.57 32.6 43.59 32.92 41.85 33.99 41.53 36.01 40.46 34.27 38.43 33.94 40.18 32.87 40.5 30.85"/><polygon class="cls-7" points="2.89 9.5 1.83 9.88 1.44 10.94 1.05 9.88 0 9.5 1.05 9.11 1.44 8.05 1.83 9.11 2.89 9.5"/><polygon class="cls-6" points="6.64 10.84 4.89 11.91 4.57 13.93 3.5 12.19 1.48 11.86 3.22 10.79 3.55 8.77 4.62 10.52 6.64 10.84"/><polygon class="cls-7" points="39.31 6.56 38.25 6.95 37.86 8 37.47 6.95 36.42 6.56 37.47 6.17 37.86 5.11 38.25 6.17 39.31 6.56"/><polygon class="cls-6" points="8.43 40 7.37 40.39 6.98 41.45 6.59 40.39 5.54 40 6.59 39.61 6.98 38.56 7.37 39.61 8.43 40"/></g></svg>