<?xml version="1.0" encoding="UTF-8"?><svg id="Ebene_2" xmlns="http://www.w3.org/2000/svg" viewBox="0 0 46.95 48.13"><defs><style>.cls-1,.cls-2{stroke-miterlimit:10;}.cls-1,.cls-2,.cls-3{fill:none;stroke-width:.5px;}.cls-1,.cls-2,.cls-3,.cls-4{stroke:#666146;}.cls-2,.cls-3,.cls-4{stroke-linecap:round;}.cls-5{fill:#c0ba97;}.cls-6{fill:#e1c260;}.cls-7{fill:#666146;}.cls-3,.cls-4{stroke-linejoin:round;}.cls-4{fill:#fff;stroke-dasharray:.8;stroke-width:.3px;}</style></defs><g id="Ebene_4"><path class="cls-6" d="M44.66,23.64c-.28,18.14-22.22,27.06-35.13,14.41-7.96-7.63-8.12-21.26-.24-29.05,13.08-13.23,35.52-4,35.37,14.65h0ZM42.07,23.64C41.8,7.76,22.54-.29,11.11,10.81c-9.37,8.99-6.28,25.01,5.74,29.95,11.98,5.1,25.52-4.18,25.22-17.12h0Z"/><polygon class="cls-7" points="13.87 38.03 15.09 41.35 18.41 42.58 15.09 43.8 13.87 47.12 12.64 43.8 9.32 42.58 12.64 41.35 13.87 38.03"/><polygon class="cls-7" points="41.64 44.67 42.11 45.93 43.37 46.4 42.11 46.87 41.64 48.13 41.17 46.87 39.91 46.4 41.17 45.93 41.64 44.67"/><polygon class="cls-5" points="43.25 40.18 44.53 42.27 46.95 42.66 44.86 43.94 44.48 46.36 43.19 44.27 40.77 43.88 42.86 42.6 43.25 40.18"/><polygon class="cls-7" points="1.73 4.44 2.2 5.7 3.46 6.17 2.2 6.63 1.73 7.9 1.26 6.63 0 6.17 1.26 5.7 1.73 4.44"/><polygon class="cls-5" points="4.5 3.75 4.83 4.63 5.7 4.95 4.83 5.27 4.5 6.15 4.18 5.27 3.31 4.95 4.18 4.63 4.5 3.75"/><polygon class="cls-5" points="37.87 3.45 37.49 2.16 36.26 1.61 37.55 1.23 38.1 0 38.48 1.29 39.71 1.84 38.42 2.22 37.87 3.45"/><polygon class="cls-7" points="37.72 7.78 37.99 5.44 36.39 3.71 38.73 3.99 40.46 2.39 40.19 4.72 41.79 6.45 39.45 6.18 37.72 7.78"/></g><g id="Ebene_2-2"><circle class="cls-4" cx="24.76" cy="16.76" r="1.26"/><circle class="cls-4" cx="33.3" cy="18.96" r="1.26"/><circle class="cls-4" cx="35" cy="33.58" r="1.26"/><circle class="cls-4" cx="21.72" cy="21.71" r="1.26"/><path class="cls-1" d="M11.32,13.14v2.08M12.35,14.18h-2.08"/><path class="cls-1" d="M11.32,16.19v2.08M12.35,17.23h-2.08"/><path class="cls-1" d="M11.32,19.24v2.08M12.35,20.28h-2.08"/><path class="cls-1" d="M11.32,22.29v2.08M12.35,23.32h-2.08"/><polyline class="cls-3" points="13.24 14.18 24.76 14.18 24.76 15.52"/><polyline class="cls-2" points="13.24 17.23 21.72 17.23 21.72 20.48"/><polyline class="cls-3" points="13.24 20.28 17.16 20.28 17.16 24.36 33.3 24.36 33.3 20.2"/><polyline class="cls-3" points="13.01 23.32 15.08 23.32 15.08 30.6 35 30.81 35 32.32"/><polygon class="cls-7" points="37.01 24.85 37.22 25.42 37.79 25.63 37.22 25.84 37.01 26.41 36.8 25.84 36.23 25.63 36.8 25.42 37.01 24.85"/><polygon class="cls-7" points="37.74 22.82 38.32 23.76 39.42 23.94 38.47 24.52 38.3 25.61 37.72 24.67 36.62 24.49 37.57 23.91 37.74 22.82"/><polygon class="cls-7" points="26.45 12.08 27.05 12.17 27.51 11.77 27.42 12.37 27.81 12.84 27.21 12.74 26.75 13.14 26.84 12.54 26.45 12.08"/><polygon class="cls-7" points="25.02 10.45 26.13 10.4 26.82 9.53 26.86 10.64 27.74 11.33 26.63 11.37 25.94 12.24 25.9 11.14 25.02 10.45"/><polygon class="cls-7" points="22.48 33.02 22.12 32.53 21.51 32.49 22 32.12 22.04 31.52 22.4 32.01 23.01 32.05 22.52 32.41 22.48 33.02"/><polygon class="cls-7" points="22.34 35.17 21.52 34.43 20.42 34.56 21.17 33.74 21.03 32.64 21.85 33.39 22.95 33.25 22.21 34.07 22.34 35.17"/></g></svg>