<?xml version="1.0" encoding="UTF-8"?><svg id="Ebene_2" xmlns="http://www.w3.org/2000/svg" viewBox="0 0 61.86 59.81"><defs><style>.cls-1{fill:#fff;}.cls-2{fill:#666;}.cls-3{fill:#666146;}</style></defs><g id="Ebene_1-2"><g id="Ebene_5"><path class="cls-3" d="M30.7,25.82s-.3,1.09-.52,1.16-1.95.62-1.85,2.47c0,0-.06,1.16-2.12,1.39,0,0,.36.3-.79,1.09,0,0-.6.67-.32,1.01,0,0-1.78,1.87-1.59,2.38,0,0,.75.09.34,1.05,0,0,0,.67.19.82,0,0,0,1.24-.99,2.12,0,0,.71.41.28,1.37,0,0-.34,1.09.79,1.35,0,0,1.35.52,1.55,2.02,0,0,2.68,1.39,3.37,2.21,0,0,2.64-.99,3.61-.28,0,0,1.29.41,2.06-.67,0,0,2.02-1.09,2.92-.04,0,0,.24,1.46,1.82.39,0,0,2.45.04.52,2.96,0,0-.28.36,1.82,1.95,0,0,1.74,1.31.52,3.24,0,0-1.89,1.55-1.37,2.53,0,0,.94.62.86,1.22,0,0-.34.9.09,1.35,0,0,.69.21.28.88,0,0,3.58-.06,7.17-3.99,0,0,2.17-1.31,3-3.33,0,0,1.14-1.57,1.35-1.44,0,0,1.78-1.44,1.55-4.08-.26-2.64,2.27-5.19,2.27-5.19,0,0,2.73-4.29,2.17-7.62,0,0-1.59,2.38-1.95,2.34,0,0-.47-.49-.49-1.14,0,0-.88-.99-1.46-.86,0,0-.32-1.5-1.14-1.57,0,0-.09-1.93-1.39-2.34,0,0-.77-1.93-2.23-3.65,0,0-1.01-.49-1.67-.21,0,0-1.5-.21-1.74.06,0,0-1.29-.02-1.82-.49,0,0-1.42.52-.56,1.27,0,0-.28,1.24-1.16.39,0,0-1.39.36-1.7-.62,0,0-.73-.47-1.37-.19,0,0-1.91-.24-1.5-.9,0,0,1.07-.43-.11-1.27,0,0,.02-.99-1.01-.3,0,0-1.16-.13-1.39.3,0,0-2-.28-2.36.26,0,0-1.09,1.16-1.65,1.05-.34.06-1.09.15-1.82-.26-.15-.09-.28-.17-.39-.28l-.04.06Z"/><path class="cls-3" d="M.07,34.12s-.32-3.28.41-3.61c0,0,.84-.77.75,1.93,0,0,.26.71.56.88,0,0,1.24.43.77,1.12,0,0,.32,2.43,1.12,3.2,0,0,2.17,1.37,2.7,5.13,0,0,1.09,1.82,3.24,3.28,0,0,1.01-.28,2.02,1.63,0,0,1.03-.32,1.61,1.78,0,0,.41,1.01-1.44,1.82,0,0,1.01,1.89.28,3,0,0-1.46-.41-2.1-.86,0,0,1.05.77.94,1.72-2.19-1.89-5.69-5.41-8.18-10.86C.91,40.28.26,36.64.03,34.1l.04.02Z"/><path class="cls-3" d="M3.08,29.57v-.45s-.71-.11-.6.34.6.11.6.11Z"/><path class="cls-3" d="M2.09,27.99s.13-1.09-.47-1.91c0,0,.06,1.35-.17,1.35-.04.17.02.36.17.47.21.17.47.09.47.09Z"/><path class="cls-3" d="M2.11,21.76s1.16-4.14,2.7-3.95c0,0,1.29-3.05,2.68-2.27,0,0,.52-1.35,2.21-1.14,0,0-.73.45-.75.9,0,0,2.1-.15,2.21-.92,0,0-.19.21-.67.19,0,0-.6-1.87,1.14-2.4,0,0,.32.49.84.6,0,0,1.14-.6,1.44-.28,0,0-2.25,1.01-2.15,1.63,0,0,1.01.28.79,1.16,0,0,.69.28,1.05-1.55,0,0-.52-.19.43-1.05l.94-.86s-.84-1.33,1.44-3.93c0,0-.77.71-1.39.34,0,0,1.55-1.01,1.39-1.7,0,0,0-.71-.36-.54,0,0-1.33,1.39-1.8,1.14,0,0-.88,1.44-1.8,1.46,0,0-1.48.86-1.59,1.27,0,0,.11-1.12,1.37-1.74,0,0,.67-2.34,4.12-3.28,0,0,2.75-2.02,4.12-1.76,0,0-1.27,1.61-1.2,1.97,0,0-.6.41-1.74.19,0,0-.99,1.48-.64,2.08,0,0,.32-.97.6-.88,0,0,.21.52.09.49,0,0,.94-1.22,1.74-1.59,0,0-.26,1.01-.49,1.01,0,0,1.31-.15,1.33-1.5,0,0,1.78-2.23,2.58-2.15,0,0,1.18-.54,2.21-.28,0,0,0,1.05-1.72,2.45,0,0-1.37.43-1.59.92,0,0-3.05,2.12-2.25,3.28,0,0,.71.24.49.73,0,0,2.08-2,3.07-2,0,0,2.3-.17,2.4-.88,0,0,2.75.24,2.75-1.01,0,0,1.44-1.18,1.65-2.02,0,0,.36-.9,1.14-.9s-.92-1.27-3.13-.9c0,0,.34-1.22,3.99-.82,0,0,3.63-.56,5.3.36,0,0,3.63.28,4.18.86.56.56,2.66.13,2.66.13-2.64-1.14-9.7-3.8-18.65-2.12-9.94,1.87-15.9,7.88-17.77,9.94,0,.52.32,2-.77,2.83-.43.32-3.03,1.01-2.62,2.25,0,0,.15.19.15.49,0,.21-.11.36-.15.43-.58.86-.86,1.31-1.39,1.85-.49.47-.9,1.44-.58,3.54v-.11Z"/><path class="cls-3" d="M30.65,25.58s.02-.79-.79-.75c-.82.06-.9.32-.69-1.27s.36-2.36.17-2.53c0,0,.36-.77,3.43-.11,0,0,1.5-1.35-1.35-3.13,0,0,1.46,0,1.46-.21,0,0-.82-.82.28-.34,0,0,.92-.43,1.03-1.01,0,0,.86-1.5,1.39-1.5,0,0,.69.17.71-.3,0,0-.49-1.87.32-2.12,0,0,.43.41.3.67,0,0-.43.75.13.97,0,0,.52.49,1.05-.06,0,0,.56.54,1.55-.3,0,0,.94.54.94-.67,0,0-.52-.71-.13-1.14,0,0,.64.47.64.28,0,0,.28-1.01-.69-.54,0,0-.88-.56,1.03-.88,0,0,.6-.58-.39-.39,0,0-1.48.94-2.06.43,0,0,.62-.6-.36-1.48,0,0,.84-.75.26-1.24,0,0-.77-.24-.56.52,0,0,.34.32-.26.9,0,0-.3.62.64,1.35,0,0,.67.17,0,.86,0,0,.39,1.39-.32,1.39,0,0-.47.79-.86.58,0,0-.62-.41.21-.75,0,0-1.05-.67-1.2-1.35,0,0-.9,1.22-1.33.54,0,0-1.18-1.42-.64-1.87,0,0,1.03-.82,1.22-1.35,0,0-.21-.99.3-1.37,0,0-.26-.36-.49,0,0,0,.54-1.33,1.76-1.52,0,0,2.45-.13,4.03.67,0,0,.9.64-.9.67,0,0,1.01.9,1.46.77,0,0,.13-.6-.09-.79,0,0,.52-.36.32-.54,0,0-.86-.45-.79-.79,0,0,.26,0,.82.47,0,0,.34-.77.06-1.14,0,0,.99-.21-.21-.56,0,0-.84.32-1.39-.13,0,0-1.46-1.14-1.55-1.55,0,0-.04-.58-.17-.41,0,0,.3-.34.41.41,0,0,1.44,1.65,2.12,1.46,0,0,1.2-.32,1.61,0,0,0-1.59-.71-1.72-1.12,0,0,2.75-.06,2.9-.52h0c.24-.28,6.67,3.93,10.56,8.13,2.21,2.4,5.34,6.67,7.02,13.78-.13-.21-.32-.47-.56-.75-.3-.36-.69-.73-.94-.71,0,0,.02,1.05-1.01,1.61,0,0-.3-.73-.67-.67,0,0,.06,2.12-1.91-.34,0,0-.56.28-.47.64,0,0,1.44,1.76,1.5,2.02,0,0-.13-.28,0-.71,0,0,.45,1.24.56,1.09,0,0,.71-.11.49-2.02,0,0,.34.9.49,1.01,0,0,.56-.47.88.36,0,0,.39,3.65-.49,4.42,0,0-.45,1.44-.79,1.8,0,0-1.22,2.02-1.14,2.12,0,0,.02.54-.45.54,0,0-.24-1.29-.64-1.85s-.47-1.63-1.57-1.95-.17-.6-.17-.6c0,0-.43-1.16-1.18-1.27,0,0-.62-1.61-1.63-1.85,0,0-.17-.71-.28-.75,0,0,.09.77,0,.97,0,0-1.29-1.55-1.7-1.65,0,0,1.2.02,1.14-1.27,0,0-.71-2.17-.47-2.77,0,0-.21.3-.69.28,0,0-.43.9-1.48.39,0,0,.02.67-.39.67,0,0-1.05-.73-1.63-1.01,0,0,.04-.45-.13-.71,0,0-.32-.67-.9-.86,0,0-1.05-.11-1.14.67,0,0,1.27.73,1.07,1.09,0,0-.45.71-.13,1.16,0,0-1.18-.41-1.59-1.55,0,0-.54.21-.75-.92,0,0-.11-.52-1.01-.84,0,0-1.48-.32-1.82-1.39,0,0-.86-.58-1.12.13,0,0-.15.49.62,1.03,0,0,.62.32.97.88,0,0,.9,0,1.97.88,0,0-1.01-.24-.9.26,0,0,.82.26.45.71,0,0-.9.9-.58,1.5,0,0-1.27-.58-1.46-.54,0,0,.56-.28,1.42-.64,0,0,.75-.56-.3-.97,0,0-.45-.73-1.31-.6,0,0-1.52-.94-1.59-1.59,0,0-.58-.58-1.14.15,0,0-1.07,1.03-1.61.28,0,0-.64-.21-.54.9,0,0,.02.62-1.03.71,0,0-.73.84-.54,1.55,0,0-.06,1.03-1.03,1.31l-2.02.54h.11Z"/><path class="cls-2" d="M38.27,20.8s.28.36.15.86c0,0-.15.13-.21.11,0,0-.32-.11-.26-.58,0,0,.13-.24.13-.39,0,0,.19,0,.19,0Z"/><path class="cls-2" d="M38.68,23.33s.11-1.03-.19-1.29-.04,0-.04,0c0,0-.24.24-.52.17,0,0,.3,1.03.3,1.12h.45Z"/><polygon class="cls-2" points="34.97 23.24 35.52 23.42 35.74 23.16 35.42 22.92 34.97 23.24"/><polygon class="cls-2" points="35.78 22.79 36.12 22.86 35.95 23.07 35.78 22.79"/><path class="cls-2" d="M46.06,24.4s.92.26,1.2,0c0,0,.21.26,0,.28,0,0-1.2.24-1.29-.09,0,0,.09-.19.09-.19Z"/><path class="cls-2" d="M49.8,23.74s.32-.47.6-.45c0,0,.32-.02.09.34,0,0-.34.32-.36.45l-.32-.34Z"/><path class="cls-1" d="M46.4,17.08s-.21.6,0,.9c0,0-.36.32-.04.99,0,0-.36,2.02,1.31,1.31,0,0,1.14-1.61,2.23-.79,0,0,1.44.17,1.37-1.09,0,0,.11-.62-.94-.52,0,0-.36-.67-1.2-.47,0,0-.6-.52-1.07.54,0,0-.36-.28-.69-.39,0,0-.21-.58-.69-.49h-.26l-.02.02Z"/><path class="cls-1" d="M54.84,20.13s-.94-.64-.99-1.95c0,0,.36-.09-.32-.34,0,0-1.57-.56-1.24-1.85,0,0,.58-.28,1.52.94,0,0,1.65,1.61,2.04,2.53,0,0-.39.84-.73.58,0,0-.28.09-.28.09Z"/><path class="cls-3" d="M29.06,15.52s.79-.52.73-.64-.47-.15-.47-.15l.36-.52s.73,0,.82-.45c0,0,.77.15.36.69,0,0,.19.64-.41,1.09,0,0-.58.32-.84.34l-.56-.34v-.02Z"/><path class="cls-3" d="M31.32,16.68s.32-.49.94-.45c0,0,.88.69,1.5-.15,0,0,0-.75.26-.79,0,0-.06-.24-.56-.24,0,0-.09-.71-.79-.94,0,0-.04-.64-.36-.69,0,0-.43.11.06-.86,0,0-.11-.24-.47-.17,0,0,.56-.58.28-.62,0,0-.32.19-.54.3,0,0-.67.09-.6.56,0,0-.41.49,0,.75,0,0,1.2.58.94.84,0,0,.28.54-.26.64,0,0,.04.39-.09.43,0,0-.6.28-.45.39,0,0,.49.28.41.39l-.28.6v.02Z"/><path class="cls-3" d="M27.48,9.4s.36-.19.69-.11c0,0,1.01-.09.99-.6,0,0-.13-.49-.54-.56,0,0-.75.34-1.24.19,0,0-.26-.11-.28-.39,0,0-.79.04-.54.56,0,0,.28.56.19.62.06.06.19.19.41.26.13.04.24.04.32.04v-.02Z"/></g></g></svg>