<?xml version="1.0" encoding="UTF-8"?><svg id="Ebene_2" xmlns="http://www.w3.org/2000/svg" viewBox="0 0 90.01 32.74"><defs><style>.cls-1{fill:#f6d7b0;}.cls-2{fill:#fff;}</style></defs><g id="Ebene_1-2"><path class="cls-1" d="M2.16,14.08H0v-2.65h2.16v-5.51c0-1.9.41-3.37,1.27-4.39.86-1.02,2.05-1.53,3.65-1.53.45,0,.93.07,1.42.2.52.14.97.34,1.34.58l-1.23,2.14c-.3-.34-.74-.51-1.27-.51-.78,0-1.34.27-1.75.82-.41.54-.6,1.43-.6,2.65v5.47h4.02v2.65h-3.98v10.47h-2.87v-10.4Z"/><path class="cls-2" d="M18.99,21.22l1.3,2.18c-.67.48-1.42.82-2.2,1.09-.78.27-1.53.41-2.27.41-1.42,0-2.64-.31-3.69-.92-1.04-.61-1.86-1.43-2.42-2.48-.56-1.05-.86-2.24-.86-3.57s.3-2.45.93-3.54c.63-1.05,1.45-1.9,2.53-2.55,1.08-.61,2.27-.95,3.54-.95,1.64,0,3.02.51,4.13,1.5,1.12,1.02,1.86,2.41,2.27,4.18l-9.98,3.71c.37.65.86,1.16,1.49,1.53s1.34.54,2.12.54c1.04,0,2.09-.37,3.09-1.12ZM12.81,14.52c-.74.85-1.12,1.94-1.12,3.23,0,.31,0,.58.04.71l7.34-2.82c-.3-.71-.74-1.29-1.3-1.73-.56-.44-1.27-.68-2.09-.68-1.15.03-2.09.44-2.87,1.29Z"/><path class="cls-2" d="M34.52,11.46v13.12h-2.57l-.19-2.52c-.45.88-1.08,1.6-1.97,2.18-.89.58-1.9.85-2.98.85-1.15,0-2.12-.37-2.87-1.09-.74-.71-1.12-1.67-1.19-2.82v-9.72h2.87v8.67c.04.75.26,1.33.63,1.77.37.44.93.65,1.71.68.71,0,1.34-.2,1.9-.65s1.01-1.02,1.34-1.8.48-1.6.48-2.55v-6.12h2.83Z"/><path class="cls-2" d="M44.65,24.48c-.78.27-1.56.41-2.38.41-1.38,0-2.57-.27-3.61-.85-1.04-.58-1.86-1.39-2.46-2.41-.6-1.05-.86-2.24-.86-3.64s.3-2.55.93-3.6c.63-1.05,1.42-1.87,2.46-2.41,1.04-.54,2.12-.85,3.28-.85,1.94,0,3.54.54,4.8,1.63l-1.45,1.94c-.41-.31-.89-.58-1.42-.82-.52-.24-1.08-.34-1.71-.34-.74,0-1.45.2-2.05.58-.63.41-1.12.92-1.45,1.6-.37.68-.52,1.43-.52,2.24s.19,1.56.56,2.24c.37.68.89,1.22,1.53,1.63.63.41,1.38.61,2.23.61,1.04,0,1.94-.31,2.72-.95l1.45,1.84c-.6.51-1.27.88-2.05,1.16Z"/><path class="cls-2" d="M58.06,12.04c.78.71,1.15,1.67,1.19,2.82v9.69h-2.87v-8.67c-.04-.75-.26-1.33-.63-1.73-.37-.41-.97-.65-1.75-.68-.74,0-1.38.2-1.97.65-.6.44-1.04,1.02-1.38,1.77-.34.75-.52,1.6-.52,2.55v6.15h-2.83V0h2.76v13.8c.48-.85,1.15-1.56,2.01-2.11.89-.51,1.9-.78,3.02-.78,1.23.03,2.2.41,2.98,1.12Z"/><path class="cls-2" d="M65.17,5.68v5.81h3.43v2.35h-3.43v10.74h-2.87v-10.74h-2.31v-2.35h2.31v-5.81h2.87Z"/><path class="cls-2" d="M78.02,21.22l1.3,2.18c-.67.48-1.42.82-2.2,1.09-.78.27-1.53.41-2.27.41-1.42,0-2.64-.31-3.69-.92-1.04-.61-1.86-1.43-2.42-2.48-.56-1.05-.86-2.24-.86-3.57s.3-2.45.93-3.54c.63-1.05,1.45-1.9,2.53-2.55,1.08-.61,2.27-.95,3.54-.95,1.64,0,3.02.51,4.13,1.5,1.12,1.02,1.86,2.41,2.27,4.18l-10.02,3.64c.37.65.86,1.16,1.49,1.53.63.37,1.34.54,2.12.54,1.12.07,2.12-.31,3.13-1.05ZM71.88,14.52c-.74.85-1.12,1.94-1.12,3.23,0,.31,0,.58.04.71l7.34-2.82c-.3-.71-.74-1.29-1.3-1.73-.56-.44-1.27-.68-2.09-.68-1.15.03-2.12.44-2.87,1.29Z"/><path class="cls-2" d="M85.95,12.65c.6-.54,1.23-.99,1.9-1.26.67-.31,1.27-.44,1.79-.48l-.11,2.96c-.93-.03-1.75.14-2.5.58-.74.44-1.34,1.02-1.75,1.77-.41.75-.63,1.53-.63,2.38v5.98h-2.83v-13.12h2.53l.22,3.09c.34-.71.78-1.36,1.38-1.9Z"/><path class="cls-2" d="M40.59,31.06c-.19.07-.37.1-.56.1-.34,0-.63-.07-.86-.2-.22-.14-.45-.34-.6-.58-.15-.24-.22-.54-.22-.88,0-.31.07-.61.22-.85.15-.24.34-.44.6-.58s.52-.2.78-.2c.45,0,.86.14,1.15.41l-.34.48c-.11-.07-.22-.14-.34-.2-.11-.07-.26-.07-.41-.07-.19,0-.34.03-.48.14-.15.1-.26.24-.34.37-.07.14-.11.34-.11.54s.04.37.15.54c.07.17.22.31.37.37.15.1.34.14.52.14.26,0,.45-.07.67-.24l.34.44c-.22.1-.37.2-.56.27Z"/><path class="cls-2" d="M42.01,25.21l-.04,5.88h-.67l.04-5.88h.67Z"/><path class="cls-2" d="M42.46,28.65c.15-.27.34-.44.6-.61.26-.14.56-.2.86-.2s.6.07.86.24.45.34.6.61c.15.24.22.54.22.85s-.07.61-.22.85c-.15.27-.34.44-.6.61-.26.14-.56.2-.86.2-.34,0-.6-.07-.86-.2-.26-.14-.45-.34-.6-.58-.15-.24-.22-.54-.22-.88s.07-.65.22-.88ZM43.05,30.04c.07.17.19.31.34.41.15.1.3.14.48.14.3,0,.52-.1.71-.31.19-.2.3-.48.3-.78s-.07-.58-.26-.78c-.19-.2-.41-.31-.71-.31-.19,0-.34.03-.48.14-.15.1-.26.24-.34.41-.07.17-.15.34-.15.54s.04.37.11.54Z"/><path class="cls-2" d="M46.81,26.57v1.39h.82v.58h-.82v2.58h-.67v-2.58h-.56v-.58h.56v-1.39h.67Z"/><path class="cls-2" d="M50.39,28.15c.19.17.3.41.3.68v2.31h-.67v-2.07c0-.17-.07-.31-.15-.41-.07-.1-.22-.17-.41-.17s-.34.07-.48.14c-.15.1-.26.24-.34.41-.07.17-.11.37-.11.61v1.46h-.67l.04-5.88h.67v3.3c.11-.2.26-.37.48-.51.22-.14.45-.2.71-.2.19.07.45.17.63.34Z"/><path class="cls-2" d="M51.24,26.62c.07-.07.19-.1.3-.1s.19.03.3.1c.11.07.11.17.11.27s-.04.2-.11.27c-.07.07-.19.1-.3.1s-.19-.03-.3-.1c-.07-.07-.11-.17-.11-.27s.04-.2.11-.27ZM51.84,28.02v3.13h-.67v-3.13h.67Z"/><path class="cls-2" d="M54.97,28.19c.19.17.3.41.3.68v2.31h-.67v-2.07c0-.17-.07-.31-.15-.41-.07-.1-.22-.17-.41-.17-.26,0-.48.1-.67.34-.19.24-.26.51-.26.85v1.46h-.67v-3.13h.6l.04.61c.11-.24.26-.41.48-.54s.45-.2.74-.2c.22,0,.48.1.67.27Z"/><path class="cls-2" d="M58.95,28.05v3.16c0,.27-.07.54-.22.78-.15.24-.34.41-.6.54-.26.14-.56.2-.93.2-.3,0-.56-.07-.78-.17-.22-.1-.45-.27-.67-.48l.41-.48c.15.17.34.27.48.37.15.07.34.14.56.14.34,0,.6-.07.78-.24.19-.17.3-.41.3-.68v-.58c-.11.2-.3.34-.48.48s-.45.17-.74.17c-.26,0-.52-.07-.78-.24-.22-.14-.41-.34-.56-.61-.15-.24-.22-.54-.22-.85s.07-.61.22-.85c.15-.24.34-.44.6-.61s.52-.2.78-.2.48.07.71.17c.22.1.37.24.48.41l.04-.44h.63ZM57.87,30.46c.19-.14.34-.34.37-.58v-.61c-.07-.24-.19-.41-.37-.54-.19-.14-.41-.2-.67-.2-.3,0-.56.1-.74.31s-.3.44-.3.78c0,.2.04.37.15.54.11.17.22.31.37.41.15.1.34.14.52.14.26-.03.48-.1.67-.24Z"/><path class="cls-2" d="M62.08,26.69v1.39h.82v.54h-.82v2.58h-.67v-2.58h-.56v-.58h.56v-1.39l.67.03Z"/><path class="cls-2" d="M65.66,28.22c.19.17.3.41.3.68v2.31h-.67v-2.07c0-.17-.07-.31-.15-.41-.07-.1-.22-.17-.41-.17s-.34.07-.48.14c-.15.1-.26.24-.34.41-.07.17-.11.37-.11.61v1.46h-.67l.04-5.88h.67v3.3c.11-.2.26-.37.48-.51.22-.14.45-.2.71-.2.22.07.45.14.63.34Z"/><path class="cls-2" d="M69.57,28.08v3.13h-.67v-.51c-.11.14-.26.27-.48.41-.22.14-.45.17-.71.17-.3,0-.56-.07-.78-.2-.22-.14-.41-.31-.56-.58-.15-.24-.19-.54-.19-.88s.07-.65.22-.88c.15-.27.34-.44.56-.58.22-.14.48-.2.78-.2.26,0,.48.07.67.17.19.1.34.27.45.44l.04-.51.67.03ZM68.52,30.5c.19-.14.3-.34.34-.58v-.61c-.04-.24-.19-.41-.37-.54-.19-.14-.41-.2-.63-.2-.19,0-.34.03-.48.14-.15.1-.26.2-.37.37-.07.17-.15.34-.15.54s.04.37.15.54c.11.17.22.31.37.41.15.1.34.14.52.14.26,0,.45-.07.63-.2Z"/><path class="cls-2" d="M71.06,26.69v1.39h.82v.58h-.82v2.58h-.67v-2.58h-.56v-.58h.56v-1.39h.67Z"/><path class="cls-2" d="M77.02,28.12l-1.42,3.33-.97-2.14-.89,2.14-1.38-3.33h.67l.78,1.9.56-1.36-.22-.54h.6l.82,1.94.78-1.94h.67Z"/><path class="cls-2" d="M76.98,28.8c.15-.27.34-.44.6-.61.26-.14.56-.2.86-.2s.6.07.86.24c.26.17.45.34.6.61.15.24.22.54.22.85s-.07.61-.22.85c-.15.27-.34.44-.6.61-.26.14-.56.2-.86.2-.34,0-.6-.07-.86-.2-.26-.14-.45-.34-.6-.58-.15-.24-.22-.54-.22-.88s.07-.65.22-.88ZM77.57,30.19c.07.17.19.31.34.41.15.1.3.14.48.14.3,0,.52-.1.71-.31.19-.2.3-.48.3-.78s-.07-.58-.26-.78c-.19-.2-.41-.31-.71-.31-.19,0-.34.03-.48.14-.15.1-.26.24-.34.41s-.15.34-.15.54c-.04.2,0,.37.11.54Z"/><path class="cls-2" d="M81.34,28.39c.15-.14.3-.24.45-.31.15-.07.3-.1.41-.1l-.04.71c-.22,0-.41.03-.6.14-.19.1-.34.24-.41.41-.11.17-.15.37-.15.58v1.43h-.67v-3.13h.6l.04.75c.11-.17.22-.34.37-.48Z"/><path class="cls-2" d="M83.5,29.75l-.41.34v1.19h-.67l.04-5.88h.67v3.98l1.56-1.29.41.37-1.12.92,1.27,1.9h-.78l-.97-1.53Z"/><path class="cls-2" d="M85.62,31.21c-.19-.07-.37-.2-.48-.37l.3-.41c.11.14.26.2.37.27.15.07.26.1.41.1s.3-.03.41-.1c.11-.07.15-.17.15-.31,0-.1-.04-.2-.07-.27-.07-.07-.15-.1-.22-.14s-.22-.07-.41-.14c-.52-.17-.78-.48-.78-.92,0-.27.11-.48.3-.68.19-.2.45-.27.78-.27.22,0,.41.03.56.07.15.07.34.14.45.27l-.26.44c-.07-.07-.19-.14-.3-.2-.11-.07-.22-.07-.34-.07-.15,0-.26.03-.34.1-.11.07-.15.17-.15.27s.04.17.07.24c.07.07.11.1.19.14.07.03.19.07.41.14.26.1.45.2.6.34.15.14.22.31.22.54,0,.31-.11.54-.3.75-.22.2-.48.31-.86.31-.3.03-.52,0-.71-.1Z"/><path class="cls-1" d="M88.34,29.89c.19-.2.45-.27.71-.27.22,0,.45.1.67.27.19.2.3.41.3.68s-.11.48-.3.65c-.19.17-.41.27-.67.27s-.48-.1-.71-.27c-.22-.17-.3-.41-.3-.68,0-.24.11-.44.3-.65Z"/></g></svg>