<?xml version="1.0" encoding="UTF-8"?><svg id="Ebene_2" xmlns="http://www.w3.org/2000/svg" viewBox="0 0 827.24 826.38"><defs><style>.cls-1{fill:#e1c260;}.cls-2{fill:#666146;}</style></defs><g id="Ebene_1-2"><path class="cls-1" d="M827.19,419.21c-2.17,227.21-189.51,408.44-415.85,407.16-291.1-1.56-488.81-294.74-381.98-565.39C142.5-23.43,518.01-91.56,722.42,137.26c68.36,76.62,106.28,179.54,104.78,281.95h0ZM770.2,419.21c-.85-94.27-40.8-185.1-108.07-250.79C542.18,49.95,354.18,29.47,212.55,121.63,68.51,213.62,9.1,400.69,73.55,559.12c53.59,136.18,191.28,229.49,337.8,227.64,200.85-1.08,361.44-167.48,358.86-367.55h0Z"/><path class="cls-2" d="M532.03,445.21H242.03c-14.36,0-26-11.64-26-26s11.64-26,26-26h290c14.36,0,26,11.64,26,26s-11.64,26-26,26Z"/><path class="cls-2" d="M411.72,582.59c-6.55,0-13.09-2.46-18.15-7.39-10.28-10.03-10.49-26.49-.46-36.77l116.27-119.23-116.27-119.23c-10.03-10.28-9.82-26.74.46-36.77,10.28-10.03,26.74-9.82,36.77.46l151.68,155.53-151.68,155.53c-5.1,5.22-11.85,7.85-18.62,7.85Z"/></g></svg>