<?xml version="1.0" encoding="UTF-8"?><svg id="Ebene_2" xmlns="http://www.w3.org/2000/svg" viewBox="0 0 46.95 48.13"><defs><style>.cls-1{stroke-dasharray:.5;}.cls-1,.cls-2,.cls-3,.cls-4,.cls-5,.cls-6{fill:none;stroke:#f7931e;stroke-linecap:round;stroke-miterlimit:10;stroke-width:.3px;}.cls-7{fill:#fff;}.cls-2{stroke-dasharray:.48 .48;}.cls-8{fill:#c0ba97;}.cls-9{fill:#e1c260;}.cls-10{fill:#666;}.cls-3{stroke-dasharray:.49 .49;}.cls-4{stroke-dasharray:.5 .5;}.cls-6{stroke-dasharray:.51 .51;}.cls-11{fill:#666146;}.cls-12{fill:#f7931e;}</style></defs><g id="Circle_Stars"><path class="cls-9" d="M44.66,23.64c-.28,18.14-22.22,27.06-35.13,14.41-7.96-7.63-8.12-21.26-.24-29.05,13.08-13.23,35.52-4,35.37,14.65h0ZM42.07,23.64C41.8,7.76,22.54-.29,11.11,10.81c-9.37,8.99-6.28,25.01,5.74,29.95,11.98,5.1,25.52-4.18,25.22-17.12h0Z"/><polygon class="cls-11" points="13.87 38.03 15.09 41.35 18.41 42.58 15.09 43.8 13.87 47.12 12.64 43.8 9.32 42.58 12.64 41.35 13.87 38.03"/><polygon class="cls-11" points="41.64 44.67 42.11 45.93 43.37 46.4 42.11 46.87 41.64 48.13 41.17 46.87 39.91 46.4 41.17 45.93 41.64 44.67"/><polygon class="cls-8" points="43.25 40.18 44.53 42.27 46.95 42.66 44.86 43.94 44.48 46.36 43.19 44.27 40.77 43.88 42.86 42.6 43.25 40.18"/><polygon class="cls-11" points="1.73 4.44 2.2 5.7 3.46 6.17 2.2 6.63 1.73 7.9 1.26 6.63 0 6.17 1.26 5.7 1.73 4.44"/><polygon class="cls-8" points="4.5 3.75 4.83 4.63 5.7 4.95 4.83 5.27 4.5 6.15 4.18 5.27 3.31 4.95 4.18 4.63 4.5 3.75"/><polygon class="cls-8" points="37.87 3.45 37.49 2.16 36.26 1.61 37.55 1.23 38.1 0 38.48 1.29 39.71 1.84 38.42 2.22 37.87 3.45"/><polygon class="cls-11" points="37.72 7.78 37.99 5.44 36.39 3.71 38.73 3.99 40.46 2.39 40.19 4.72 41.79 6.45 39.45 6.18 37.72 7.78"/></g><g id="Ebene_5"><path class="cls-11" d="M24.03,20.78s-.14.51-.24.54c-.1.03-.91.29-.86,1.15,0,0-.03.54-.99.65,0,0,.17.14-.37.51,0,0-.28.31-.15.47,0,0-.83.87-.74,1.11,0,0,.35.04.16.49,0,0,0,.31.09.38,0,0,0,.58-.46.99,0,0,.33.19.13.64,0,0-.16.51.37.63,0,0,.63.24.72.94,0,0,1.25.65,1.57,1.03,0,0,1.23-.46,1.68-.13,0,0,.6.19.96-.31,0,0,.94-.51,1.36-.02,0,0,.11.68.85.18,0,0,1.14.02.24,1.38,0,0-.13.17.85.91,0,0,.81.61.24,1.51,0,0-.88.72-.64,1.18,0,0,.44.29.4.57,0,0-.16.42.04.63,0,0,.32.1.13.41,0,0,1.67-.03,3.34-1.86,0,0,1.01-.61,1.4-1.55,0,0,.53-.73.63-.67,0,0,.83-.67.72-1.9-.12-1.23,1.06-2.42,1.06-2.42,0,0,1.27-2,1.01-3.55,0,0-.74,1.11-.91,1.09,0,0-.22-.23-.23-.53,0,0-.41-.46-.68-.4,0,0-.15-.7-.53-.73,0,0-.04-.9-.65-1.09,0,0-.36-.9-1.04-1.7,0,0-.47-.23-.78-.1,0,0-.7-.1-.81.03,0,0-.6-.01-.85-.23,0,0-.66.24-.26.59,0,0-.13.58-.54.18,0,0-.65.17-.79-.29,0,0-.34-.22-.64-.09,0,0-.89-.11-.7-.42,0,0,.5-.2-.05-.59,0,0,.01-.46-.47-.14,0,0-.54-.06-.65.14,0,0-.93-.13-1.1.12,0,0-.51.54-.77.49-.16.03-.51.07-.85-.12-.07-.04-.13-.08-.18-.13Z"/><path class="cls-11" d="M9.76,24.65s-.15-1.53.19-1.68c0,0,.39-.36.35.9,0,0,.12.33.26.41,0,0,.58.2.36.52,0,0,.15,1.13.52,1.49,0,0,1.01.64,1.26,2.39,0,0,.51.85,1.51,1.53,0,0,.47-.13.94.76,0,0,.48-.15.75.83,0,0,.19.47-.67.85,0,0,.47.88.13,1.4,0,0-.68-.19-.98-.4,0,0,.49.36.44.8-1.02-.88-2.65-2.52-3.81-5.06-.86-1.87-1.16-3.57-1.27-4.75Z"/><path class="cls-11" d="M11.16,22.53s0-.21,0-.21c0,0-.33-.05-.28.16s.28.05.28.05Z"/><path class="cls-11" d="M10.7,21.79s.06-.51-.22-.89c0,0,.03.63-.08.63-.02.08.01.17.08.22.1.08.22.04.22.04Z"/><path class="cls-11" d="M10.71,18.89s.54-1.93,1.26-1.84c0,0,.6-1.42,1.25-1.06,0,0,.24-.63,1.03-.53,0,0-.34.21-.35.42,0,0,.98-.07,1.03-.43,0,0-.09.1-.31.09,0,0-.28-.87.53-1.12,0,0,.15.23.39.28,0,0,.53-.28.67-.13,0,0-1.05.47-1,.76,0,0,.47.13.37.54,0,0,.32.13.49-.72,0,0-.24-.09.2-.49l.44-.4s-.39-.62.67-1.83c0,0-.36.33-.65.16,0,0,.72-.47.65-.79,0,0,0-.33-.17-.25,0,0-.62.65-.84.53,0,0-.41.67-.84.68,0,0-.69.4-.74.59,0,0,.05-.52.64-.81,0,0,.31-1.09,1.92-1.53,0,0,1.28-.94,1.92-.82,0,0-.59.75-.56.92,0,0-.28.19-.81.09,0,0-.46.69-.3.97,0,0,.15-.45.28-.41,0,0,.1.24.04.23,0,0,.44-.57.81-.74,0,0-.12.47-.23.47,0,0,.61-.07.62-.7,0,0,.83-1.04,1.2-1,0,0,.55-.25,1.03-.13,0,0,0,.49-.8,1.14,0,0-.64.2-.74.43,0,0-1.42.99-1.05,1.53,0,0,.33.11.23.34,0,0,.97-.93,1.43-.93,0,0,1.07-.08,1.12-.41,0,0,1.28.11,1.28-.47,0,0,.67-.55.77-.94,0,0,.17-.42.53-.42s-.43-.59-1.46-.42c0,0,.16-.57,1.86-.38,0,0,1.69-.26,2.47.17,0,0,1.69.13,1.95.4.26.26,1.24.06,1.24.06-1.23-.53-4.52-1.77-8.69-.99-4.63.87-7.41,3.67-8.28,4.63,0,.24.15.93-.36,1.32-.2.15-1.41.47-1.22,1.05,0,0,.07.09.07.23,0,.1-.05.17-.07.2-.27.4-.4.61-.65.86-.23.22-.42.67-.27,1.65Z"/><path class="cls-11" d="M24.01,20.67s.01-.37-.37-.35c-.38.03-.42.15-.32-.59.1-.74.17-1.1.08-1.18,0,0,.17-.36,1.6-.05,0,0,.7-.63-.63-1.46,0,0,.68,0,.68-.1,0,0-.38-.38.13-.16,0,0,.43-.2.48-.47,0,0,.4-.7.65-.7,0,0,.32.08.33-.14,0,0-.23-.87.15-.99,0,0,.2.19.14.31,0,0-.2.35.06.45,0,0,.24.23.49-.03,0,0,.26.25.72-.14,0,0,.44.25.44-.31,0,0-.24-.33-.06-.53,0,0,.3.22.3.13,0,0,.13-.47-.32-.25,0,0-.41-.26.48-.41,0,0,.28-.27-.18-.18,0,0-.69.44-.96.2,0,0,.29-.28-.17-.69,0,0,.39-.35.12-.58,0,0-.36-.11-.26.24,0,0,.16.15-.12.42,0,0-.14.29.3.63,0,0,.31.08,0,.4,0,0,.18.65-.15.65,0,0-.22.37-.4.27,0,0-.29-.19.1-.35,0,0-.49-.31-.56-.63,0,0-.42.57-.62.25,0,0-.55-.66-.3-.87,0,0,.48-.38.57-.63,0,0-.1-.46.14-.64,0,0-.12-.17-.23,0,0,0,.25-.62.82-.71,0,0,1.14-.06,1.88.31,0,0,.42.3-.42.31,0,0,.47.42.68.36,0,0,.06-.28-.04-.37,0,0,.24-.17.15-.25,0,0-.4-.21-.37-.37,0,0,.12,0,.38.22,0,0,.16-.36.03-.53,0,0,.46-.1-.1-.26,0,0-.39.15-.65-.06,0,0-.68-.53-.72-.72,0,0-.02-.27-.08-.19,0,0,.14-.16.19.19,0,0,.67.77.99.68,0,0,.56-.15.75,0,0,0-.74-.33-.8-.52,0,0,1.28-.03,1.35-.24,0,0,0,0,0,0,.11-.13,3.11,1.83,4.92,3.79,1.03,1.12,2.49,3.11,3.27,6.42-.06-.1-.15-.22-.26-.35-.14-.17-.32-.34-.44-.33,0,0,.01.49-.47.75,0,0-.14-.34-.31-.31,0,0,.03.99-.89-.16,0,0-.26.13-.22.3,0,0,.67.82.7.94,0,0-.06-.13,0-.33,0,0,.21.58.26.51,0,0,.33-.05.23-.94,0,0,.16.42.23.47,0,0,.26-.22.41.17,0,0,.18,1.7-.23,2.06,0,0-.21.67-.37.84,0,0-.57.94-.53.99,0,0,.01.25-.21.25,0,0-.11-.6-.3-.86-.19-.26-.22-.76-.73-.91-.51-.15-.08-.28-.08-.28,0,0-.2-.54-.55-.59,0,0-.29-.75-.76-.86,0,0-.08-.33-.13-.35,0,0,.04.36,0,.45,0,0-.6-.72-.79-.77,0,0,.56.01.53-.59,0,0-.33-1.01-.22-1.29,0,0-.1.14-.32.13,0,0-.2.42-.69.18,0,0,.01.31-.18.31,0,0-.49-.34-.76-.47,0,0,.02-.21-.06-.33,0,0-.15-.31-.42-.4,0,0-.49-.05-.53.31,0,0,.59.34.5.51,0,0-.21.33-.06.54,0,0-.55-.19-.74-.72,0,0-.25.1-.35-.43,0,0-.05-.24-.47-.39,0,0-.69-.15-.85-.65,0,0-.4-.27-.52.06,0,0-.07.23.29.48,0,0,.29.15.45.41,0,0,.42,0,.92.41,0,0-.47-.11-.42.12,0,0,.38.12.21.33,0,0-.42.42-.27.7,0,0-.59-.27-.68-.25,0,0,.26-.13.66-.3,0,0,.35-.26-.14-.45,0,0-.21-.34-.61-.28,0,0-.71-.44-.74-.74,0,0-.27-.27-.53.07,0,0-.5.48-.75.13,0,0-.3-.1-.25.42,0,0,.01.29-.48.33,0,0-.34.39-.25.72,0,0-.03.48-.48.61l-.94.25Z"/><path class="cls-10" d="M27.56,18.44s.13.17.07.4c0,0-.07.06-.1.05,0,0-.15-.05-.12-.27,0,0,.06-.11.06-.18h.09Z"/><path class="cls-10" d="M27.75,19.62s.05-.48-.09-.6-.02,0-.02,0c0,0-.11.11-.24.08,0,0,.14.48.14.52h.2Z"/><polygon class="cls-10" points="26.02 19.58 26.28 19.66 26.38 19.54 26.23 19.43 26.02 19.58"/><polygon class="cls-10" points="26.4 19.37 26.56 19.4 26.48 19.5 26.4 19.37"/><path class="cls-10" d="M31.19,20.12s.43.12.56,0c0,0,.1.12,0,.13,0,0-.56.11-.6-.04l.04-.09Z"/><path class="cls-10" d="M32.93,19.81s.15-.22.28-.21c0,0,.15-.01.04.16,0,0-.16.15-.17.21l-.15-.16Z"/><path class="cls-7" d="M31.35,16.71s-.1.28,0,.42c0,0-.17.15-.02.46,0,0-.17.94.61.61,0,0,.53-.75,1.04-.37,0,0,.67.08.64-.51,0,0,.05-.29-.44-.24,0,0-.17-.31-.56-.22,0,0-.28-.24-.5.25,0,0-.17-.13-.32-.18,0,0-.1-.27-.32-.23h-.12Z"/><path class="cls-7" d="M35.28,18.13s-.44-.3-.46-.91c0,0,.17-.04-.15-.16,0,0-.73-.26-.58-.86,0,0,.27-.13.71.44,0,0,.77.75.95,1.18,0,0-.18.39-.34.27l-.13.04Z"/><path class="cls-11" d="M23.27,15.98s.37-.24.34-.3-.22-.07-.22-.07l.17-.24s.34,0,.38-.21c0,0,.36.07.17.32,0,0,.09.3-.19.51,0,0-.27.15-.39.16l-.26-.16Z"/><path class="cls-11" d="M24.32,16.52s.15-.23.44-.21c0,0,.41.32.7-.07,0,0,0-.35.12-.37,0,0-.03-.11-.26-.11,0,0-.04-.33-.37-.44,0,0-.02-.3-.17-.32,0,0-.2.05.03-.4,0,0-.05-.11-.22-.08,0,0,.26-.27.13-.29,0,0-.15.09-.25.14,0,0-.31.04-.28.26,0,0-.19.23,0,.35,0,0,.56.27.44.39,0,0,.13.25-.12.3,0,0,.02.18-.04.2,0,0-.28.13-.21.18,0,0,.23.13.19.18l-.13.28Z"/><path class="cls-11" d="M22.53,13.13s.17-.09.32-.05c0,0,.47-.04.46-.28,0,0-.06-.23-.25-.26,0,0-.35.16-.58.09,0,0-.12-.05-.13-.18,0,0-.37.02-.25.26,0,0,.13.26.09.29.03.03.09.09.19.12.06.02.11.02.15.02Z"/></g><g id="Ebene_3"><path class="cls-5" d="M28.8,16.53s-.02-.13-.04-.24"/><path class="cls-6" d="M28.66,15.79c-.29-1.26-1.2-3.74-4.48-5.24-3.93-1.79-7.26.01-8.4.76"/><path class="cls-5" d="M15.56,11.46c-.11.07-.17.13-.2.14"/><path class="cls-5" d="M31.71,10.94c-.04-.08-.07-.15-.11-.22"/><path class="cls-2" d="M31.35,10.3c-1.51-2.13-2.26,3.92-2.49,5.74"/><path class="cls-5" d="M28.83,16.28c-.02.12-.03.21-.04.24-.05,0-.14.01-.24.03"/><path class="cls-4" d="M28.06,16.64c-2.29.46-8.92,2.42-12.37,8.72-1.44,2.64-1.72,5.32-1.74,7.09"/><path class="cls-5" d="M13.96,32.71c0,.09,0,.17,0,.25"/><path class="cls-5" d="M15.55,14.7c.08-.03.15-.07.23-.1"/><path class="cls-3" d="M16.24,14.41c6.33-2.39,12.07,1.76,12.55,2.12.66-.08,3.91.38,6.36,2.03,1.63,1.1,2.39,2.45,2.76,3.27"/><path class="cls-5" d="M38.01,22.06c.03.09.06.16.09.23"/><path class="cls-1" d="M28.8,16.53c.49,1.11,1.84,3.63,1.91,5.94.1,3.28-.95,5.52-1.57,6.7"/></g><g id="Ebene_2-2"><path class="cls-12" d="M29.58,14.88l-.3.63-.51,1.08-.52-1.09-.3-.62c-.07-.47.37-.82.82-.82s.91.34.81.82Z"/><circle class="cls-7" cx="28.77" cy="14.82" r=".37"/><path class="cls-12" d="M16.14,13.38l-.26.54-.44.93-.45-.94-.26-.54c-.06-.4.32-.71.71-.71s.78.29.7.71Z"/><circle class="cls-7" cx="15.44" cy="13.33" r=".32"/><path class="cls-12" d="M32.45,9.38l-.27.57-.47.99-.47-.99-.27-.57c-.07-.43.34-.75.75-.75s.83.31.74.75Z"/><circle class="cls-7" cx="31.71" cy="9.33" r=".34"/><path class="cls-12" d="M29.83,27.7l-.28.59-.48,1.01-.48-1.01-.28-.58c-.07-.44.34-.77.77-.77s.84.32.76.77Z"/><circle class="cls-7" cx="29.07" cy="27.65" r=".34"/><path class="cls-12" d="M38.78,21.03l-.25.52-.42.89-.43-.9-.25-.52c-.06-.39.31-.68.68-.68s.75.28.67.68Z"/><circle class="cls-7" cx="38.1" cy="20.98" r=".3"/><path class="cls-12" d="M16.2,10.14l-.28.58-.47,1-.48-1.01-.28-.58c-.07-.43.34-.76.76-.76s.84.31.75.76Z"/><circle class="cls-7" cx="15.45" cy="10.09" r=".34"/><path class="cls-12" d="M14.74,31.46l-.29.61-.5,1.05-.51-1.06-.29-.6c-.07-.45.36-.8.8-.8s.88.33.79.8Z"/><circle class="cls-7" cx="13.95" cy="31.41" r=".36"/></g></svg>