<?xml version="1.0" encoding="UTF-8"?><svg id="Ebene_2" xmlns="http://www.w3.org/2000/svg" viewBox="0 0 837.86 781.59"><defs><style>.cls-1{fill:none;}.cls-2{fill:#c0ba97;}.cls-3{fill:#e1c260;}.cls-4{fill:#666146;}</style></defs><g id="Ebene_1-2"><path class="cls-4" d="M415.19,488.58l-25.96,25.96c-6.91,6.91-15.96,10.36-25.01,10.36s-18.1-3.45-25.01-10.36l-91.27-91.27c-13.81-13.81-13.81-36.2,0-50.02s36.2-13.81,50.02,0l66.26,66.26"/><path class="cls-4" d="M385.37,421.2l168.33-168.33c13.81-13.81,36.2-13.81,50.02,0,13.81,13.81,13.81,36.2,0,50.02l-168.67,168.67"/><path class="cls-3" d="M797.92,399.24c15.49-19.46,15.49-46.63,0-66.08l-54.01-67.79c-.85-1.06-1.28-2.4-1.22-3.76h0c.2-4.51-4.45-7.63-8.55-5.74l-35.71,16.48c-2.82,1.3-4.16,4.53-3.16,7.48,2.06,6.09,5.17,11.83,9.25,16.93l54,67.78c.77.98.77,2.34,0,3.31l-54,67.78c-8.44,10.59-12.75,23.87-12.15,37.39l3.85,86.58c.05,1.24-.75,2.34-1.95,2.67l-83.53,23.1c-13.05,3.61-24.34,11.82-31.8,23.11l-47.78,72.3c-.68,1.04-1.98,1.46-3.14,1.02l-81.16-30.41c-12.67-4.75-26.64-4.75-39.31,0l-81.15,30.41c-1.17.44-2.46.02-3.15-1.02l-47.77-72.3c-7.47-11.29-18.76-19.5-31.81-23.11l-83.53-23.1c-1.2-.33-2-1.43-1.94-2.67l1.28-28.78c.2-4.51-4.45-7.63-8.55-5.74l-39.16,18.07c-2.05.95-3.4,2.95-3.5,5.21l-.4,9c-1.11,24.85,14.87,46.84,38.84,53.46l83.53,23.1c1.31.36,2.45,1.19,3.2,2.33l47.78,72.3c10.08,15.26,26.73,23.84,44.09,23.84,6.25,0,12.59-1.11,18.76-3.42l81.15-30.41c1.28-.48,2.68-.48,3.96,0l81.15,30.41c23.29,8.73,49.13.33,62.85-20.42l47.78-72.3c.75-1.14,1.88-1.97,3.2-2.33l83.53-23.1c23.97-6.62,39.94-28.61,38.84-53.46l-3.85-86.58c-.06-1.36.38-2.69,1.22-3.76l54.01-67.78ZM707.7,121.57l-83.53-23.1c-1.32-.36-2.45-1.18-3.21-2.32l-47.77-72.31c-13.71-20.75-39.56-29.14-62.85-20.42l-81.15,30.41c-1.28.48-2.69.48-3.96,0L344.08,3.42c-23.29-8.73-49.14-.33-62.85,20.42l-47.78,72.31c-.75,1.14-1.89,1.96-3.2,2.32l-83.53,23.1c-23.97,6.63-39.95,28.61-38.84,53.46l3.84,86.58c.06,1.36-.37,2.7-1.22,3.76l-54,67.79c-15.5,19.45-15.5,46.62,0,66.08l54,67.78c.85,1.07,1.28,2.4,1.22,3.76l-.05,1.07c-.2,4.51,4.45,7.63,8.55,5.74l36.05-16.64c2.73-1.26,4.15-4.35,3.25-7.21-2.05-6.52-5.29-12.66-9.62-18.1l-54-67.78c-.78-.97-.78-2.33,0-3.31l54-67.78c8.43-10.59,12.75-23.86,12.15-37.39l-3.85-86.57c-.06-1.25.74-2.35,1.94-2.68l83.53-23.1c13.05-3.6,24.34-11.81,31.81-23.1l47.77-72.31c.51-.76,1.34-1.19,2.21-1.19.31,0,.63.05.94.17l81.15,30.41c12.68,4.75,26.64,4.75,39.31,0l81.16-30.41c1.16-.44,2.46-.02,3.14,1.02l47.78,72.31c7.46,11.29,18.75,19.5,31.8,23.1l83.53,23.1c1.2.33,2,1.43,1.95,2.68l-1.33,29.83c-.2,4.51,4.45,7.63,8.55,5.74l39.16-18.07c2.05-.94,3.4-2.95,3.5-5.21l.45-10.06c1.1-24.85-14.87-46.83-38.84-53.46Z"/><line class="cls-1" x1=".08" y1="560.01" y2="560.04"/></g><g id="Ebene_2-2"><polygon class="cls-4" points="171.84 625.4 192.93 682.4 249.93 703.49 192.93 724.59 171.84 781.59 150.75 724.59 93.75 703.49 150.75 682.4 171.84 625.4"/><polygon class="cls-4" points="746.54 637.15 754.57 658.84 776.26 666.87 754.57 674.9 746.54 696.59 738.52 674.9 716.83 666.87 738.52 658.84 746.54 637.15"/><polygon class="cls-2" points="774.23 559.95 796.26 595.86 837.86 602.51 801.95 624.53 795.3 666.13 773.27 630.22 731.67 623.57 767.58 601.55 774.23 559.95"/><polygon class="cls-4" points="50.34 118.28 58.37 139.97 80.06 147.99 58.37 156.02 50.34 177.71 42.31 156.02 20.62 147.99 42.31 139.97 50.34 118.28"/><polygon class="cls-2" points="98.04 106.51 103.59 121.52 118.6 127.07 103.59 132.63 98.04 147.64 92.48 132.63 77.47 127.07 92.48 121.52 98.04 106.51"/><polygon class="cls-2" points="671.45 101.33 664.86 79.16 643.74 69.73 665.91 63.14 675.33 42.02 681.92 64.19 703.04 73.62 680.87 80.21 671.45 101.33"/><polygon class="cls-4" points="666.81 175.75 671.47 135.55 643.99 105.85 684.19 110.5 713.89 83.02 709.23 123.22 736.71 152.92 696.52 148.26 666.81 175.75"/></g></svg>