<?xml version="1.0" encoding="UTF-8"?><svg id="Ebene_2" xmlns="http://www.w3.org/2000/svg" viewBox="0 0 872.58 904.93"><defs><style>.cls-1{fill:#fff;}.cls-2{fill:#c0ba97;}.cls-3{fill:#e1c260;}.cls-4{fill:#666146;}</style></defs><g id="Circle"><path class="cls-3" d="M827.19,471.27c-2.17,227.21-189.51,408.44-415.85,407.16-291.1-1.56-488.81-294.74-381.98-565.39C142.5,28.63,518.01-39.5,722.42,189.32c68.36,76.62,106.28,179.54,104.78,281.95h0ZM770.2,471.27c-.84-94.27-40.8-185.1-108.07-250.79-119.96-118.47-307.95-138.95-449.58-46.79C68.51,265.68,9.1,452.74,73.55,611.18c53.59,136.18,191.28,229.49,337.8,227.64,200.85-1.08,361.44-167.48,358.86-367.55h0Z"/><polygon class="cls-4" points="226.56 667.62 251.03 733.75 317.16 758.22 251.03 782.69 226.56 848.81 202.09 782.69 135.97 758.22 202.09 733.75 226.56 667.62"/><polygon class="cls-4" points="781.99 723.74 806.46 789.87 872.58 814.34 806.46 838.81 781.99 904.93 757.52 838.81 691.39 814.34 757.52 789.87 781.99 723.74"/><polygon class="cls-4" points="637.87 689.27 647.19 714.43 672.35 723.74 647.19 733.05 637.87 758.22 628.56 733.05 603.4 723.74 628.56 714.43 637.87 689.27"/><polygon class="cls-2" points="670 599.7 695.55 641.36 743.81 649.07 702.16 674.63 694.44 722.89 668.88 681.23 620.63 673.51 662.28 647.96 670 599.7"/><polygon class="cls-4" points="58.46 112.32 67.77 137.49 92.94 146.8 67.77 156.11 58.46 181.27 49.15 156.11 23.99 146.8 49.15 137.49 58.46 112.32"/><polygon class="cls-2" points="113.8 98.67 120.24 116.08 137.65 122.53 120.24 128.97 113.8 146.38 107.35 128.97 89.94 122.53 107.35 116.08 113.8 98.67"/><polygon class="cls-2" points="689.14 68.8 681.49 43.08 656.99 32.15 682.71 24.5 693.65 0 701.29 25.72 725.79 36.65 700.08 44.3 689.14 68.8"/><polygon class="cls-4" points="686.12 155.14 691.52 108.5 659.64 74.04 706.27 79.45 740.73 47.56 735.33 94.2 767.21 128.66 720.58 123.25 686.12 155.14"/></g><g id="Vector"><polygon class="cls-2" points="254.58 683.64 248.14 657.67 224.23 645.66 250.2 639.21 262.21 615.3 268.66 641.28 292.57 653.29 266.59 659.73 254.58 683.64"/><path class="cls-1" d="M301.22,382.39v237.04h-82.37v-228.74l82.37-8.3ZM449.37,224.76c-.59,14-4.93,82.42-61.04,132.15-33.15,29.38-69.14,38.73-87.11,42.07v205.04s30.81-2.96,39.7,0c8.89,2.96,63.41,31.41,63.41,31.41,0,0,10.07,4.74,17.19,4.74s124.44,5.33,132.74,0c8.3-5.33,33.78-17.19,29.63-34.37-4.15-17.19-20.15-22.52-11.85-30.22,8.3-7.7,26.07-10.67,26.67-28.44.59-17.78-8.3-29.04-14.22-33.19-5.93-4.15,15.46-9.48,14.25-23.7s-.03-36.74-4.77-42.07c-4.74-5.33,10.67-18.37,10.67-18.37,0,0,9.48-14.81-8.89-33.78-18.37-18.96-31.41-21.83-31.41-21.83h-82.96s44.44-71.79,23.11-112.68c-21.33-40.89-55.11-36.74-55.11-36.74Z"/><path class="cls-4" d="M302.29,381.21c.89,2.82,2.18,7.32,2.69,10.91.33,1.7.68,3.4.98,5.09,7.6,43.98,10.64,88.78,9.25,133.33-1.46,29.72-7.77,59.12-8.86,88.89,0,0-.23,5.34-.23,5.34-8.46-.43-17.05-.62-25.5-.51-20.66.15-41.26,1.97-61.78,4.38,0,0-8.03.91-8.03.91-5.48-41.35-7.33-82.9-8.73-124.49-1.53-42.42.98-84.91,4.88-127.18,5.49-.06,16.61-.21,22.12-.28,23.73-.15,50.97,1.83,73.2,3.6h0ZM300.15,383.58c-28.78,6.71-52.36,14.37-79.99,20.05,0,0,11.7-12.94,11.7-12.94,3.26,38.07,5.11,76.19,3.75,114.37-1.43,38.22-2.69,76.34-7.55,114.37,0,0-9.21-9.21-9.21-9.21,20.52,2.4,41.12,4.22,61.78,4.38,6.86.08,13.73,0,20.59-.3,0,0-5.13,5.13-5.13,5.13-1.09-29.77-7.39-59.17-8.86-88.89-1.39-44.55,1.65-89.35,9.25-133.33.3-1.7.64-3.4.98-5.09.76-2.92,1.85-4.91,2.69-8.54h0Z"/><path class="cls-4" d="M450.54,225.85c.22.27.39.28.53.47,0,0,.03.47.03.47,0,0,.11,1.96.11,1.96.64,14.52-.7,29.07-3.62,43.32-14.06,72.08-71.77,127.29-143.77,140.9,0,0,11.63-13.99,11.63-13.99,1.61,68.45-4.02,136.74-7.62,205.04,0,0-7.24-6.58-7.24-6.58,5.59-.22,11.02-.42,16.56-.44,6.92.06,14.25-.08,21.3,1.09,3.09.42,6.18,1.75,8.95,3.07,16.87,8.3,41.4,20.77,58.28,29.23,1.03.58,2.18.97,3.27,1.42,4.53,1.67,9.14,3.08,13.92,2.89,20.34.15,44.56.03,64.89-.64,16.08-.47,32.18-1.14,48.12-2.46,4.52-.4,9.62-.8,13.81-1.93.02-.02.01-.03.02-.04,0,0,.05-.02-.14.02,0,0-.19.06-.19.06-.47.18-.96.4-1.38.68,3.68-2.59,8.19-5.27,11.68-7.87,3.22-2.35,12.36-9.4,11.03-13.39-1.97-6.86-7.71-11.27-11.82-17.61-4.69-6.97-4.89-16.29.19-23.1,3.69-5.16,10.57-9.28,15.44-12.16,3.51-2.2,6.91-4.01,8.43-7.06,0-.34.21-.53.19-.96,0-.2.11-.32.09-.58-.02-.43.03-.76.04-1.2,0,0-.03-.7-.03-.7-.13-7.13-2.75-14.78-8.49-18.84-1.57-1.16-2.98-2.54-4.14-4.13-5.34-7.12-4.16-17.12,1.84-23.43,1.72-1.94,4.73-4.37,6.41-5.75,1.17-.82,3.57-3.29,3.56-3.63-.19.26-.46,1.19-.4,1.64,0,0,.01.09,0-.06,0,0-.05-.58-.05-.58-.78-8.93-.85-16.35-1.37-24.65-.23-3.36-.47-6.41-1.15-9.25,0,0-.04-.12-.04-.12,0,0-.03-.12-.03-.12,0,0-.01,0-.01,0,.05.19.25.58.43.91.33.56.77,1.24,1.26,1.76.15.17-.1-.12-.24-.29l-.46-.57c-4.4-5.13-5.5-13.68-3.54-19.56,1.72-5.91,5.46-10.94,9.23-15.15,2.39-2.64,4.8-4.99,7.47-7.28,0,0-3.38,3.86-3.38,3.86-.53.84-.32.53-.52.89-.02.08-.02.05,0,.02.02,0,.03-.07.05-.13.8-3.02-.6-5.94-2.37-8.89-.83-1.22-1.88-2.57-2.89-3.7-.32-.39-.81-.97-1.16-1.32-6.77-7.05-14.3-13.72-22.81-17.49.02,0,0,0,.05,0l.38.08s3.48.38,3.48.38c-34.82-.78-72.98-2.1-107.79-3.48.55-1.01,14.52-21.67,14.63-22.04,3.49-5.51,6.75-11.22,9.83-16.98,10.01-19.36,19.19-40.47,20.21-62.35.23-6.02-.4-11.87-2.18-17.56-1.1-3.23-2.72-6.64-4.31-9.69-8.65-16.84-25.04-30.66-44.52-31.91,0,0-.34-.01-.34-.01,0,0-.16,0-.16,0,0,0-.04,0-.04,0,.01,0-.09,0,.02,0,.31-.04.67-.25.86-.5h0ZM448.19,223.68c.3-.28.77-.52,1.21-.55,0,0,.2-.04.2-.04,0,0,.4-.07.4-.07l.78-.12c23.2-2.74,44.94,11.81,57.34,30.64,25.26,34.94,3.34,93.73-15.15,127.82,0,0-11.6-20.83-11.6-20.83,11.95-.49,29.34-1.05,41.48-1.44,11.18-.25,31.98-.92,43.16-1.14,1.37.32,3.11.71,4.45,1.14,14.47,4.77,26.89,14.75,37.39,25.16,11.79,11.9,19.48,28.21,15.14,45.42-.99,4.03-2.62,7.61-5,11.2-2.67,2.43-5.82,5.17-7.94,7.99-.53.67-.7,1.17-.43.54,1.59-3.8,0-9.76-2.71-12.51,2.9,3.34,4.66,7.4,5.72,11.59,3.16,13.55,1.88,28.01,2.82,41.27.67,14.55-8.46,24.22-18.91,31.67,0,0-.15.12-.15.12,0,0-.08.06-.08.06,0,0,0,0,0-.02.71-.76,1.44-1.84,1.92-2.83,3.12-6.04,1.06-14.39-4.41-18.06,0,0,.36.27.36.27,0,0,.71.54.71.54,12.7,10.05,19.05,26.27,19.3,41.86.1,6.5-.85,13-3.74,18.92-2.74,5.71-8.15,11.42-12.89,14.56-4.93,3.59-10.42,5.91-14.75,8.74,0,0-.25.15-.25.15,0,0-.14.12-.14.12-.1.08-.2.15-.3.22-.09.06-.28.19-.13.06.07-.08.08-.13.28-.35.19-.25.35-.5.52-.77,1.37-2.26,1.73-5.83.71-8.07-.14-.28-.14-.31-.22-.42-.04-.05-.02-.02-.03,0,.06.09.07.14.16.28,1.6,2.46,3.54,4.64,5.79,7.98,5.52,8.06,9.87,18.71,8.24,28.77-3.45,19.2-21.97,28.49-37.37,36.6-1.2.75-2.76,1.27-4.06,1.62-3.96.94-7.21.99-10.89,1.13-8.44.19-16.78-.16-25.09-.57-25.18-1.2-56.1-4.01-81.32-5.65-3.02-.28-17.91-.99-20.79-1.4-5.23-.86-10.11-2.73-14.84-4.84,0,0-.51-.23-.51-.23,0,0-.26-.12-.26-.12,0,0-.24-.12-.24-.12,0,0-.13-.07-.13-.07-2.94-1.56-8.7-4.68-11.68-6.24-15.49-8.07-31.01-16.24-47.01-23.18-1.88-.83-4.31-1.83-6.4-1.95-6.35-.59-12.65-.21-19.2.3-7.51.64-15.3,1.59-22.71,2.76-1.89-45.26-5.81-90.46-7.27-135.74-.94-25.62-1.03-51.26-.69-76.89,0,0,.12-11.98.12-11.98,0,0,11.51-2.01,11.51-2.01,70.79-12.44,122.08-62.3,142.25-130.54,2.55-8.48,4.67-17.22,6.24-25.96,0,0,.34-1.89.34-1.89.13-.96.35-2.07.74-2.92h0Z"/><polygon class="cls-2" points="350.44 299.22 356.1 314.52 371.39 320.18 356.1 325.83 350.44 341.13 344.78 325.83 329.48 320.18 344.78 314.52 350.44 299.22"/><polygon class="cls-4" points="369.96 244.78 385.5 270.1 414.83 274.79 389.51 290.32 384.82 319.65 369.29 294.33 339.95 289.64 365.27 274.11 369.96 244.78"/><polygon class="cls-2" points="720.65 541.01 714.21 515.03 690.3 503.02 716.27 496.58 728.29 472.67 734.73 498.64 758.64 510.65 732.67 517.1 720.65 541.01"/><path class="cls-2" d="M141.78,341.34c4.85-2.7,9.05-3.52,13.88-2.9,4.11.41,6.4,4.29,9.41,6.55,6.25,4.72,12.11,9.97,17.6,15.68.63.64.08,1.81-.81,1.72-4.05-.25-7.94-.84-11.85-1.4-5.94-.76-11.39-2.62-17.32-3.04-6.57-.87-10.58-8.4-11.72-14.89-.12-.7.23-1.38.81-1.72h0Z"/><path class="cls-2" d="M162.49,195.53c7.87.91,14.2,3.94,20.3,8.17,5.78,3.81,8.76,10.3,12.92,15.57,8.45,10.65,16.38,21.71,23.82,33.15.55.83-.48,1.92-1.34,1.35-5.81-3.68-11.37-7.62-16.94-11.53-8.45-5.82-16.06-12.51-24.67-18.04-5.8-3.94-9.49-9.73-12.36-16.13-1.42-3.33-2.61-6.89-3.06-11.19-.09-.76.58-1.43,1.34-1.35h0Z"/><path class="cls-2" d="M302.09,174.49c5.84,1.8,9.82,4.75,13.22,9.06,3.1,3.69,2.58,8.81,3.63,13.2,2.17,9.03,3.7,18.21,4.64,27.52.11.93-1.15,1.47-1.74.75-3.17-3.55-6-7.25-8.86-10.94-4.4-5.52-7.7-11.54-12.33-16.82-4.67-5.9-3.65-15.2-.3-22.02.33-.65,1.07-.95,1.74-.75h0Z"/><path class="cls-2" d="M425.51,87.76c4.87,5.71,7.22,11.82,8.55,18.67,1.39,6.3-1.11,12.5-1.9,18.67-1.57,12.53-3.81,24.97-6.65,37.33-.22.96-1.69.99-1.9,0-1.5-6.22-2.63-12.44-3.8-18.67-1.85-9.36-2.48-18.74-4.65-28-1.32-6.41.2-12.62,2.69-18.67,1.36-3.11,3.04-6.22,5.76-9.33.49-.57,1.41-.57,1.9,0h0Z"/><path class="cls-2" d="M540.44,175.31c2.49,5.02,3.1,9.32,2.25,14.18-.6,4.15-4.6,6.36-7.02,9.34-5.03,6.19-10.57,11.97-16.56,17.37-.66.62-1.81,0-1.68-.88.45-4.1,1.22-8.03,1.96-11.98,1.04-6,3.17-11.48,3.87-17.49,1.18-6.61,8.87-10.47,15.5-11.42.71-.09,1.37.28,1.68.88h0Z"/><path class="cls-2" d="M687.86,196.84c-.34,7.64-2.83,13.88-6.55,19.96-3.32,5.72-9.45,8.78-14.3,12.95-9.81,8.48-20.06,16.47-30.71,23.98-.8.59-1.93-.42-1.41-1.28,3.18-5.75,6.64-11.25,10.07-16.77,5.09-8.37,11.1-15.94,15.88-24.46,3.45-5.76,8.85-9.48,14.88-12.42,3.16-1.46,6.55-2.7,10.72-3.24.75-.1,1.44.52,1.41,1.28h0Z"/><path class="cls-2" d="M705.38,335.7c-.03,5.47-2.06,13.16-7.71,13.81-1.59.17-3.29.16-4.78.54-4.49,1.13-9.26,1.85-13.95,2.31-1.61.15-3.22.29-4.88.34-.85.05-1.41-.99-.91-1.67,3.7-5.15,7.92-10.05,12.49-14.34,2.17-2.02,3.52-5.66,6.92-5.92,4.22-.42,7.67.63,11.91,3.26.58.38.9,1.02.91,1.67h0Z"/></g></svg>